<svg width="26" height="17" viewBox="0 0 26 17" fill="none" xmlns="http://www.w3.org/2000/svg">
<path d="M0.25 8.40608C0.25 9.00983 0.726 9.49983 1.3125 9.49983H22.1226L17.5624 14.1942C17.148 14.6208 17.148 15.3142 17.5624 15.7408C17.9768 16.1674 18.6504 16.1674 19.0648 15.7408L25.4398 9.17827C25.5375 9.07764 25.6161 8.95733 25.6693 8.82389C25.7202 8.69045 25.75 8.55045 25.75 8.41045C25.75 8.40827 25.75 8.40827 25.75 8.40608C25.75 8.26389 25.7224 8.1217 25.6671 7.98827C25.614 7.85483 25.5354 7.73452 25.4376 7.63389L19.0626 1.07139C18.6482 0.644824 17.9746 0.644824 17.5602 1.07139C17.1459 1.49795 17.1459 2.19139 17.5602 2.61795L22.1226 7.31233H1.3125C0.726 7.31233 0.25 7.80233 0.25 8.40608Z" fill="black"/>
</svg>
