<svg width="20" height="20" viewBox="0 0 20 20" fill="none" xmlns="http://www.w3.org/2000/svg">
<g clip-path="url(#clip0)">
<path d="M0 6.25L3.27836e-07 13.75C4.78695e-07 17.2012 2.79875 20 6.25 20H13.75C17.2013 20 20 17.2012 20 13.75V6.25C20 2.79875 17.2012 -1.50859e-07 13.75 0L6.25 3.27836e-07C2.79875 4.78695e-07 -1.50859e-07 2.79875 0 6.25ZM13.75 1.875C16.1625 1.875 18.125 3.8375 18.125 6.25V13.75C18.125 16.1625 16.1625 18.125 13.75 18.125H6.25C3.8375 18.125 1.875 16.1625 1.875 13.75V6.25C1.875 3.8375 3.8375 1.875 6.25 1.875H13.75Z" fill="#7A91BB"/>
<path d="M5 10C5 12.7612 7.23875 15 10 15C12.7613 15 15 12.7612 15 10C15 7.23875 12.7612 5 10 5C7.23875 5 5 7.23875 5 10ZM13.125 10C13.125 11.7225 11.7225 13.125 10 13.125C8.27625 13.125 6.875 11.7225 6.875 10C6.875 8.2775 8.27625 6.875 10 6.875C11.7225 6.875 13.125 8.2775 13.125 10Z" fill="#7A91BB"/>
<path d="M5.29099 4.62523C5.29099 4.25727 4.99271 3.95898 4.62475 3.95898C4.25679 3.95898 3.9585 4.25727 3.9585 4.62523C3.9585 4.99319 4.25679 5.29148 4.62475 5.29148C4.99271 5.29148 5.29099 4.99319 5.29099 4.62523Z" fill="#7A91BB"/>
</g>
<defs>
<clipPath id="clip0">
<rect width="20" height="20" fill="white"/>
</clipPath>
</defs>
</svg>
