<svg width="32" height="20" viewBox="0 0 32 20" fill="none" xmlns="http://www.w3.org/2000/svg">
<path d="M26.5533 11.3705C26.036 10.7172 26.184 10.4265 26.5533 9.84251C26.56 9.83581 30.8307 3.9345 31.2707 1.93316L31.2733 1.93183C31.492 1.2025 31.2733 0.666504 30.216 0.666504H26.7173C25.8267 0.666504 25.416 1.1265 25.196 1.64116C25.196 1.64116 23.4147 5.90521 20.8947 8.66921C20.0813 9.46781 19.7053 9.72381 19.2613 9.72381C19.0427 9.72381 18.7027 9.46781 18.7027 8.73851V1.93183C18.7027 1.05716 18.4533 0.666504 17.716 0.666504H12.2147C11.656 0.666504 11.324 1.0745 11.324 1.4545C11.324 2.28383 12.584 2.4745 12.7147 4.80781V9.87051C12.7147 10.9798 12.5133 11.1838 12.0667 11.1838C10.8773 11.1838 7.99067 6.90251 6.28 2.0025C5.93467 1.05183 5.59733 0.667834 4.7 0.667834H1.2C0.201333 0.667834 0 1.12783 0 1.6425C0 2.55183 1.18933 7.07321 5.53067 13.0465C8.424 17.1238 12.4987 19.3332 16.2053 19.3332C18.4333 19.3332 18.7053 18.8425 18.7053 17.9985C18.7053 14.1025 18.504 13.7345 19.62 13.7345C20.1373 13.7345 21.028 13.9905 23.108 15.9572C25.4853 18.2892 25.876 19.3332 27.2067 19.3332H30.7053C31.7027 19.3332 32.208 18.8425 31.9173 17.8745C31.252 15.8385 26.756 11.6505 26.5533 11.3705Z" fill="black"/>
</svg>
