<svg width="32" height="20" viewBox="0 0 32 20" fill="none" xmlns="http://www.w3.org/2000/svg">
<path d="M26.5533 11.704C26.036 11.0507 26.184 10.76 26.5533 10.176C26.56 10.1693 30.8307 4.268 31.2707 2.26666L31.2733 2.26533C31.492 1.536 31.2733 1 30.216 1H26.7173C25.8267 1 25.416 1.46 25.196 1.97466C25.196 1.97466 23.4147 6.23871 20.8947 9.00271C20.0813 9.80131 19.7053 10.0573 19.2613 10.0573C19.0427 10.0573 18.7027 9.80131 18.7027 9.07201V2.26533C18.7027 1.39066 18.4533 1 17.716 1H12.2147C11.656 1 11.324 1.408 11.324 1.788C11.324 2.61733 12.584 2.808 12.7147 5.14131V10.204C12.7147 11.3133 12.5133 11.5173 12.0667 11.5173C10.8773 11.5173 7.99067 7.23601 6.28 2.336C5.93467 1.38533 5.59733 1.00133 4.7 1.00133H1.2C0.201333 1.00133 0 1.46133 0 1.976C0 2.88533 1.18933 7.40671 5.53067 13.38C8.424 17.4573 12.4987 19.6667 16.2053 19.6667C18.4333 19.6667 18.7053 19.176 18.7053 18.332C18.7053 14.436 18.504 14.068 19.62 14.068C20.1373 14.068 21.028 14.324 23.108 16.2907C25.4853 18.6227 25.876 19.6667 27.2067 19.6667H30.7053C31.7027 19.6667 32.208 19.176 31.9173 18.208C31.252 16.172 26.756 11.984 26.5533 11.704Z" fill="#7A91BB"/>
</svg>
